<svg width="17" height="20" viewBox="0 0 17 20" fill="none" xmlns="http://www.w3.org/2000/svg">
<path d="M9.82353 8.94118H4.52941M6.29412 12.4706H4.52941M11.5882 5.41176H4.52941M15.1176 8.05882V5.23529C15.1176 3.7528 15.1176 3.01156 14.8291 2.44532C14.5754 1.94724 14.1704 1.54229 13.6723 1.28851C13.1061 1 12.3648 1 10.8824 1H5.23529C3.7528 1 3.01156 1 2.44532 1.28851C1.94724 1.54229 1.54229 1.94724 1.28851 2.44532C1 3.01156 1 3.7528 1 5.23529V14.4118C1 15.8943 1 16.6355 1.28851 17.2017C1.54229 17.6998 1.94724 18.1048 2.44532 18.3585C3.01156 18.6471 3.7528 18.6471 5.23529 18.6471H8.5M13.3529 17.7647C13.3529 17.7647 16 16.503 16 14.6105V12.4025L14.0698 11.7128C13.606 11.5467 13.0988 11.5467 12.6351 11.7128L10.7059 12.4025V14.6105C10.7059 16.503 13.3529 17.7647 13.3529 17.7647Z" stroke="white" stroke-linecap="round" stroke-linejoin="round"/>
</svg>
