<svg width="24" height="24" viewBox="0 0 24 24" fill="none" xmlns="http://www.w3.org/2000/svg">
<path fill-rule="evenodd" clip-rule="evenodd" d="M6 11.5V13.5C6 14.6347 5.6781 15.0732 5.39956 15.4526C5.18717 15.7419 5 15.9969 5 16.5C5 17.6629 6 18 6.5 18H8.53544C8.77806 19.6961 10.2368 21 12 21C13.7632 21 15.2219 19.6961 15.4646 18H17.5C18 18 19 17.66 19 16.5C19 15.9985 18.8131 15.7437 18.6009 15.4545C18.3223 15.0746 18 14.6353 18 13.5V11.5C18 11.5 18.5 7.5 14.5 6.28776V5.5C14.5 4.11929 13.3807 3 12 3C10.6193 3 9.5 4.11929 9.5 5.5V6.28776C5.5 7.5 6 11.5 6 11.5ZM17 11.5C17 11.5 17.5 7 12 7C6.5 7 7 11.5 7 11.5V13.5C7 14.8333 6.55556 15.5 6.25926 15.9444C6.11111 16.1667 6 16.3333 6 16.5C6 17 6.5 17 6.5 17H17.5C17.5 17 18 17 18 16.5C18 16.3333 17.8889 16.1667 17.7407 15.9444C17.4444 15.5 17 14.8333 17 13.5V11.5ZM12 4C11.1716 4 10.5 4.67157 10.5 5.5V6.09451C10.9572 6.03322 11.4559 6 12 6C12.5441 6 13.0428 6.03322 13.5 6.09451V5.5C13.5 4.67157 12.8284 4 12 4ZM14.4492 18.0038C14.2161 19.143 13.2081 20 12 20C10.7905 20 9.78164 19.1411 9.55001 18L14.4492 18.0038Z" fill="#fff"/>
</svg>
