<svg width="24" height="24" viewBox="0 0 24 24" fill="none" xmlns="http://www.w3.org/2000/svg">
<path fill-rule="evenodd" clip-rule="evenodd" d="M5 8C5 4.13401 8.13401 1 12 1C15.866 1 19 4.13401 19 8C19 15.5124 15.0494 20.4805 13.084 22.3492C12.6277 22.7831 12.3995 23 12 23C11.6005 23 11.3723 22.7831 10.916 22.3492C8.95058 20.4805 5 15.5124 5 8ZM12 2C8.68629 2 6 4.68629 6 8C6 14.0443 9.0339 18.7428 10.7869 20.7929C11.2885 21.3795 11.5394 21.6728 12 21.6728C12.4606 21.6728 12.7115 21.3795 13.2131 20.7929C14.9661 18.7428 18 14.0443 18 8C18 4.68629 15.3137 2 12 2Z" fill="#fff"/>
<path fill-rule="evenodd" clip-rule="evenodd" d="M12 11.5C13.933 11.5 15.5 9.933 15.5 8C15.5 6.067 13.933 4.5 12 4.5C10.067 4.5 8.5 6.067 8.5 8C8.5 9.933 10.067 11.5 12 11.5ZM12 10.5C13.3807 10.5 14.5 9.38071 14.5 8C14.5 6.61929 13.3807 5.5 12 5.5C10.6193 5.5 9.5 6.61929 9.5 8C9.5 9.38071 10.6193 10.5 12 10.5Z" fill="#fff"/>
</svg>
