<svg width="20" height="16" viewBox="0 0 20 16" fill="none" xmlns="http://www.w3.org/2000/svg">
<path fill-rule="evenodd" clip-rule="evenodd" d="M16 4C16 1.79086 14.2091 0 12 0H4C1.79086 0 0 1.79086 0 4V12C0 14.2091 1.79086 16 4 16H12C14.2091 16 16 14.2091 16 12V10V8.8V7.2V6V4ZM4 1C2.34315 1 1 2.34315 1 4V12C1 13.6569 2.34315 15 4 15H12C13.6569 15 15 13.6569 15 12V4C15 2.34315 13.6569 1 12 1H4Z" fill="#fff"/>
<path d="M16 6V7.2L18.8293 4.37071C18.8923 4.30771 19 4.35233 19 4.44142V11.5586C19 11.6477 18.8923 11.6923 18.8293 11.6293L16 8.8V10L18.2929 12.2929C18.9229 12.9229 20 12.4767 20 11.5858V4.41421C20 3.52331 18.9229 3.07714 18.2929 3.70711L16 6Z" fill="#fff"/>
</svg>
