<svg width="24" height="24" viewBox="0 0 24 24" fill="none" xmlns="http://www.w3.org/2000/svg">
<path fill-rule="evenodd" clip-rule="evenodd" d="M2 14C2 9.28595 2 6.92893 3.46447 5.46447C4.92893 4 7.28595 4 12 4H15C16.8613 4 17.7919 4 18.5451 4.24472C20.0673 4.73931 21.2607 5.93273 21.7553 7.45492C22 8.20808 22 9.13872 22 11C22 12.8613 22 13.7919 21.7553 14.5451C21.2607 16.0673 20.0673 17.2607 18.5451 17.7553C17.7919 18 16.8613 18 15 18H9.34886C8.92599 18 8.71455 18 8.50925 18.0436C8.30394 18.0871 8.11073 18.173 7.7243 18.3448L4.4413 19.8039C4.15034 19.9332 3.83548 20 3.51708 20C2.67922 20 2 19.3208 2 18.4829V14ZM15 5C16.8638 5 17.7956 5 18.5307 5.30448C19.5108 5.71046 20.2895 6.48915 20.6955 7.46927C21 8.20435 21 9.13623 21 11C21 12.8638 21 13.7956 20.6955 14.5307C20.2895 15.5108 19.5108 16.2895 18.5307 16.6955C17.7956 17 16.8638 17 15 17H9.57329C8.93898 17 8.62183 17 8.31387 17.0654C8.00591 17.1307 7.71609 17.2595 7.13646 17.5171L3.92798 18.9431C3.8436 18.9806 3.75229 19 3.65995 19C3.29547 19 3 18.7045 3 18.3401V13C3 9.22876 3 7.34315 4.17157 6.17157C5.34315 5 7.22876 5 11 5H15Z" fill="#fff"/>
</svg>
