<svg width="20" height="20" viewBox="0 0 20 20" fill="none" xmlns="http://www.w3.org/2000/svg">
<path d="M10.0001 1.00003L10.2237 0.552817L10.0001 0.441014L9.77645 0.552817L10.0001 1.00003ZM19.0001 5.50003H19.5001V5.19101L19.2237 5.05282L19.0001 5.50003ZM19.0001 14.5L19.2237 14.9472L19.5001 14.809V14.5H19.0001ZM10.0001 19L9.77645 19.4472L10.0001 19.559L10.2237 19.4472L10.0001 19ZM1.00006 14.5H0.500061V14.809L0.776454 14.9472L1.00006 14.5ZM1.00006 5.50003L0.776454 5.05282L0.500061 5.19101V5.50003H1.00006ZM14.5001 11C14.5001 11.2762 14.7239 11.5 15.0001 11.5C15.2762 11.5 15.5001 11.2762 15.5001 11H14.5001ZM15.0001 7.50003H15.5001V7.19101L15.2237 7.05282L15.0001 7.50003ZM6.22367 2.55282C5.97668 2.42932 5.67634 2.52943 5.55285 2.77642C5.42935 3.02341 5.52947 3.32375 5.77645 3.44724L6.22367 2.55282ZM9.50006 18.5C9.50006 18.7762 9.72392 19 10.0001 19C10.2762 19 10.5001 18.7762 10.5001 18.5H9.50006ZM9.77645 1.44724L18.7765 5.94724L19.2237 5.05282L10.2237 0.552817L9.77645 1.44724ZM18.5001 5.50003V14.5H19.5001V5.50003H18.5001ZM18.7765 14.0528L9.77645 18.5528L10.2237 19.4472L19.2237 14.9472L18.7765 14.0528ZM10.2237 18.5528L1.22367 14.0528L0.776454 14.9472L9.77645 19.4472L10.2237 18.5528ZM1.50006 14.5V5.50003H0.500061V14.5H1.50006ZM1.22367 5.94724L10.2237 1.44724L9.77645 0.552817L0.776454 5.05282L1.22367 5.94724ZM18.7765 5.05282L9.77645 9.55282L10.2237 10.4472L19.2237 5.94724L18.7765 5.05282ZM10.2237 9.55282L1.22367 5.05282L0.776454 5.94724L9.77645 10.4472L10.2237 9.55282ZM15.5001 11V7.50003H14.5001V11H15.5001ZM15.2237 7.05282L6.22367 2.55282L5.77645 3.44724L14.7765 7.94724L15.2237 7.05282ZM10.5001 18.5V10H9.50006V18.5H10.5001Z" fill="#fff"/>
</svg>
