<svg width="24" height="24" viewBox="0 0 24 24" fill="none" xmlns="http://www.w3.org/2000/svg">
<path fill-rule="evenodd" clip-rule="evenodd" d="M22 8C22 6.11438 22 5.17157 21.4142 4.58579C20.8284 4 19.8856 4 18 4H6C4.11438 4 3.17157 4 2.58579 4.58579C2 5.17157 2 6.11438 2 8V16C2 17.8856 2 18.8284 2.58579 19.4142C3.17157 20 4.11438 20 6 20H18C19.8856 20 20.8284 20 21.4142 19.4142C22 18.8284 22 17.8856 22 16V8ZM21 7C21 6.05719 21 5.58579 20.7071 5.29289C20.4142 5 19.9428 5 19 5H5C4.05719 5 3.58579 5 3.29289 5.29289C3 5.58579 3 6.05719 3 7V8V9V17C3 17.9428 3 18.4142 3.29289 18.7071C3.58579 19 4.05719 19 5 19H19C19.9428 19 20.4142 19 20.7071 18.7071C21 18.4142 21 17.9428 21 17V9V8V7Z" fill="#fff"/>
<path d="M21 8H3V9H21V8Z" fill="#fff"/>
<path d="M7.61441 12.5856C6.94774 13.2523 6.61441 13.5856 6.61441 13.9998C6.61441 14.414 6.94774 14.7474 7.61441 15.414L8.67507 16.4747C8.87033 16.6699 9.18691 16.6699 9.38218 16.4747C9.57744 16.2794 9.57744 15.9628 9.38218 15.7676L8.32152 14.7069C7.98818 14.3736 7.82152 14.2069 7.82152 13.9998C7.82152 13.7927 7.98818 13.626 8.32152 13.2927L9.38218 12.232C9.57744 12.0368 9.57744 11.7202 9.38218 11.5249C9.18691 11.3297 8.87033 11.3297 8.67507 11.5249L7.61441 12.5856Z" fill="#fff"/>
<path d="M16.3811 15.4143C17.0478 14.7476 17.3811 14.4143 17.3811 14.0001C17.3811 13.5858 17.0478 13.2525 16.3811 12.5858L15.3204 11.5252C15.1252 11.3299 14.8086 11.3299 14.6133 11.5252C14.4181 11.7204 14.4181 12.037 14.6133 12.2323L15.674 13.293C16.0073 13.6263 16.174 13.793 16.174 14.0001C16.174 14.2072 16.0073 14.3738 15.674 14.7072L14.6133 15.7678C14.4181 15.9631 14.4181 16.2797 14.6133 16.4749C14.8086 16.6702 15.1252 16.6702 15.3204 16.4749L16.3811 15.4143Z" fill="#fff"/>
<path d="M12.1606 11.483C12.2321 11.2162 12.5063 11.0579 12.773 11.1294C13.0397 11.2009 13.198 11.475 13.1266 11.7418L11.8325 16.5714C11.761 16.8381 11.4868 16.9964 11.2201 16.925C10.9534 16.8535 10.7951 16.5793 10.8665 16.3126L12.1606 11.483Z" fill="#fff"/>
</svg>
