<svg width="19" height="18" viewBox="0 0 19 18" fill="none" xmlns="http://www.w3.org/2000/svg">
<path fill-rule="evenodd" clip-rule="evenodd" d="M18.4004 13.5C18.4004 15.9853 16.3857 18 13.9004 18C11.4151 18 9.40039 15.9853 9.40039 13.5C9.40039 11.0147 11.4151 9 13.9004 9C16.3857 9 18.4004 11.0147 18.4004 13.5ZM13.9004 17C15.8334 17 17.4004 15.433 17.4004 13.5C17.4004 11.567 15.8334 10 13.9004 10C11.9674 10 10.4004 11.567 10.4004 13.5C10.4004 15.433 11.9674 17 13.9004 17Z" fill="#fff"/>
<path d="M13.9336 14.2127L16.6198 12.8769C16.8671 12.7539 16.9679 12.4538 16.8449 12.2066C16.722 11.9593 16.4218 11.8585 16.1746 11.9815L13.8466 13.1391L12.146 12.5682C11.8847 12.4804 11.6018 12.6211 11.5141 12.8824C11.4261 13.1444 11.5678 13.428 11.8301 13.515L13.9336 14.2127Z" fill="#fff"/>
<path fill-rule="evenodd" clip-rule="evenodd" d="M0.601352 12.75C0.400391 13.0981 0.400391 13.5654 0.400391 14.5C0.400391 15.4346 0.400391 15.9019 0.601352 16.25C0.733005 16.478 0.922362 16.6674 1.15039 16.799C1.49847 17 1.96577 17 2.90039 17H5.90039C6.83501 17 7.30231 17 7.65039 16.799C7.87842 16.6674 8.06778 16.478 8.19943 16.25C8.40039 15.9019 8.40039 15.4346 8.40039 14.5C8.40039 13.5654 8.40039 13.0981 8.19943 12.75C8.06778 12.522 7.87842 12.3326 7.65039 12.201C7.30231 12 6.83501 12 5.90039 12H2.90039C1.96577 12 1.49847 12 1.15039 12.201C0.922362 12.3326 0.733005 12.522 0.601352 12.75ZM5.90039 13H2.90039C2.19328 13 1.83973 13 1.62006 13.2197C1.40039 13.4393 1.40039 13.7929 1.40039 14.5C1.40039 15.2071 1.40039 15.5607 1.62006 15.7803C1.83973 16 2.19328 16 2.90039 16H5.90039C6.6075 16 6.96105 16 7.18072 15.7803C7.40039 15.5607 7.40039 15.2071 7.40039 14.5C7.40039 13.7929 7.40039 13.4393 7.18072 13.2197C6.96105 13 6.6075 13 5.90039 13Z" fill="#fff"/>
<path fill-rule="evenodd" clip-rule="evenodd" d="M0.601352 6.75C0.400391 7.09808 0.400391 7.56538 0.400391 8.5C0.400391 9.43462 0.400391 9.90192 0.601352 10.25C0.733005 10.478 0.922362 10.6674 1.15039 10.799C1.49847 11 1.96577 11 2.90039 11H5.90039C6.83501 11 7.30231 11 7.65039 10.799C7.87842 10.6674 8.06778 10.478 8.19943 10.25C8.40039 9.90192 8.40039 9.43462 8.40039 8.5C8.40039 7.56538 8.40039 7.09808 8.19943 6.75C8.06778 6.52197 7.87842 6.33261 7.65039 6.20096C7.30231 6 6.83501 6 5.90039 6H2.90039C1.96577 6 1.49847 6 1.15039 6.20096C0.922362 6.33261 0.733005 6.52197 0.601352 6.75ZM5.90039 7H2.90039C2.19328 7 1.83973 7 1.62006 7.21967C1.40039 7.43934 1.40039 7.79289 1.40039 8.5C1.40039 9.20711 1.40039 9.56066 1.62006 9.78033C1.83973 10 2.19328 10 2.90039 10H5.90039C6.6075 10 6.96105 10 7.18072 9.78033C7.40039 9.56066 7.40039 9.20711 7.40039 8.5C7.40039 7.79289 7.40039 7.43934 7.18072 7.21967C6.96105 7 6.6075 7 5.90039 7Z" fill="#fff"/>
<path fill-rule="evenodd" clip-rule="evenodd" d="M0.601352 0.75C0.400391 1.09808 0.400391 1.56538 0.400391 2.5C0.400391 3.43462 0.400391 3.90192 0.601352 4.25C0.733005 4.47803 0.922362 4.66739 1.15039 4.79904C1.49847 5 1.96577 5 2.90039 5H5.90039C6.83501 5 7.30231 5 7.65039 4.79904C7.87842 4.66739 8.06778 4.47803 8.19943 4.25C8.40039 3.90192 8.40039 3.43462 8.40039 2.5C8.40039 1.56538 8.40039 1.09808 8.19943 0.75C8.06778 0.521971 7.87842 0.332614 7.65039 0.200962C7.30231 0 6.83501 0 5.90039 0H2.90039C1.96577 0 1.49847 0 1.15039 0.200962C0.922362 0.332614 0.733005 0.521971 0.601352 0.75ZM5.90039 1H2.90039C2.19328 1 1.83973 1 1.62006 1.21967C1.40039 1.43934 1.40039 1.79289 1.40039 2.5C1.40039 3.20711 1.40039 3.56066 1.62006 3.78033C1.83973 4 2.19328 4 2.90039 4H5.90039C6.6075 4 6.96105 4 7.18072 3.78033C7.40039 3.56066 7.40039 3.20711 7.40039 2.5C7.40039 1.79289 7.40039 1.43934 7.18072 1.21967C6.96105 1 6.6075 1 5.90039 1Z" fill="#fff"/>
<path fill-rule="evenodd" clip-rule="evenodd" d="M9.60135 0.75C9.40039 1.09808 9.40039 1.56538 9.40039 2.5C9.40039 3.43462 9.40039 3.90192 9.60135 4.25C9.73301 4.47803 9.92236 4.66739 10.1504 4.79904C10.4985 5 10.9658 5 11.9004 5H14.9004C15.835 5 16.3023 5 16.6504 4.79904C16.8784 4.66739 17.0678 4.47803 17.1994 4.25C17.4004 3.90192 17.4004 3.43462 17.4004 2.5C17.4004 1.56538 17.4004 1.09808 17.1994 0.75C17.0678 0.521971 16.8784 0.332614 16.6504 0.200962C16.3023 0 15.835 0 14.9004 0H11.9004C10.9658 0 10.4985 0 10.1504 0.200962C9.92236 0.332614 9.73301 0.521971 9.60135 0.75ZM14.9004 1H11.9004C11.1933 1 10.8397 1 10.6201 1.21967C10.4004 1.43934 10.4004 1.79289 10.4004 2.5C10.4004 3.20711 10.4004 3.56066 10.6201 3.78033C10.8397 4 11.1933 4 11.9004 4H14.9004C15.6075 4 15.9611 4 16.1807 3.78033C16.4004 3.56066 16.4004 3.20711 16.4004 2.5C16.4004 1.79289 16.4004 1.43934 16.1807 1.21967C15.9611 1 15.6075 1 14.9004 1Z" fill="#fff"/>
</svg>
