<svg width="19" height="15" viewBox="0 0 19 15" fill="none" xmlns="http://www.w3.org/2000/svg">
<path fill-rule="evenodd" clip-rule="evenodd" d="M17.4805 6.21867L1.7214 0.0901194C0.598951 -0.346387 -0.437132 0.890385 0.189303 1.91898C0.957651 3.18059 2.37489 5.52188 2.95075 6.47357C3.11073 6.73795 3.38356 6.91299 3.69051 6.94872L7.5 7.39209L3.69082 7.83546C3.38388 7.87118 3.11104 8.04623 2.95107 8.31062C2.37514 9.26248 0.957598 11.6044 0.189303 12.8659C-0.437133 13.8945 0.598954 15.1313 1.7214 14.6948L17.4805 8.56621C18.5511 8.14987 18.5511 6.63501 17.4805 6.21867ZM17.134 7.15459L1.37365 1.02936C0.996552 0.883345 0.911432 1.18087 1.04258 1.39404L3.65731 5.69527C3.73324 5.82018 3.86002 5.9056 4.0043 5.92906L9.9665 6.89873C10.5261 6.98975 10.5262 7.79468 9.96655 7.88576L4.00991 8.85514C3.86581 8.87859 3.73916 8.96385 3.66321 9.08853L1.04181 13.3919C0.8769 13.6601 1.01305 13.896 1.35091 13.7639L17.1125 7.64147C17.5424 7.47662 17.5417 7.3142 17.134 7.15459Z" fill="#87cb16"/>
<path d="M1.37365 1.02936L17.134 7.15459C17.5417 7.3142 17.5424 7.47662 17.1125 7.64147L1.35091 13.7639C1.01305 13.896 0.8769 13.6601 1.04181 13.3919L3.66321 9.08853C3.73916 8.96385 3.86581 8.87859 4.00991 8.85514L9.96655 7.88576C10.5262 7.79468 10.5261 6.98975 9.9665 6.89873L4.0043 5.92906C3.86002 5.9056 3.73324 5.82018 3.65731 5.69527L1.04258 1.39404C0.911432 1.18087 0.996552 0.883345 1.37365 1.02936Z" fill="#87cb16"/>
</svg>
