<svg width="24" height="24" viewBox="0 0 24 24" fill="none" xmlns="http://www.w3.org/2000/svg">
<path fill-rule="evenodd" clip-rule="evenodd" d="M8 12C8 9.99188 9.5 8 12 8C14.5 8 16 9.99188 16 12C16 14.0081 14.5 16 12 16C9.5 16 8 14.0081 8 12ZM12.0001 15C13.657 15 15.0001 13.6569 15.0001 12C15.0001 10.3432 13.657 9.00004 12.0001 9.00004C10.3433 9.00004 9.00015 10.3432 9.00015 12C9.00015 13.6569 10.3433 15 12.0001 15Z" fill="#fff"/>
<path fill-rule="evenodd" clip-rule="evenodd" d="M13.2176 2H10.7825C10.4238 2 10.1053 2.22953 9.99188 2.56981L9.35605 4.47732C9.30313 4.63608 9.18392 4.76406 9.02931 4.82811C8.87469 4.89215 8.69989 4.88595 8.55021 4.81111L6.7518 3.91191C6.43098 3.7515 6.0435 3.81437 5.78987 4.06801L4.068 5.78988C3.81436 6.04352 3.75148 6.43099 3.91189 6.75182L4.8111 8.55023C4.88594 8.69991 4.89214 8.8747 4.8281 9.02931C4.76406 9.18392 4.63608 9.30312 4.47732 9.35604L2.56981 9.99188C2.22953 10.1053 2 10.4238 2 10.7825V13.2175C2 13.5762 2.22953 13.8947 2.56981 14.0081L4.47731 14.644C4.63607 14.6969 4.76406 14.8161 4.8281 14.9707C4.89215 15.1253 4.88594 15.3001 4.8111 15.4498L3.91189 17.2482C3.75148 17.569 3.81436 17.9565 4.068 18.2101L5.78987 19.932C6.0435 20.1856 6.43098 20.2485 6.7518 20.0881L8.55022 19.1889C8.6999 19.1141 8.87469 19.1079 9.0293 19.1719C9.18391 19.2359 9.30313 19.3639 9.35605 19.5227L9.99188 21.4302C10.1053 21.7705 10.4238 22 10.7825 22H13.2176C13.5762 22 13.8947 21.7705 14.0081 21.4302L14.644 19.5227C14.6969 19.3639 14.8161 19.2359 14.9707 19.1719C15.1253 19.1079 15.3001 19.1141 15.4498 19.1889L17.2482 20.0881C17.569 20.2485 17.9565 20.1856 18.2101 19.932L19.932 18.2101C20.1856 17.9565 20.2485 17.569 20.0881 17.2482L19.1889 15.4498C19.1141 15.3001 19.1079 15.1253 19.1719 14.9707C19.2359 14.8161 19.3639 14.6969 19.5227 14.644L21.4302 14.0081C21.7705 13.8947 22 13.5762 22 13.2175V10.7825C22 10.4238 21.7705 10.1053 21.4302 9.99188L19.5227 9.35605C19.3639 9.30313 19.2359 9.18392 19.1719 9.02931C19.1079 8.8747 19.1141 8.69991 19.1889 8.55023L20.0881 6.75182C20.2485 6.43099 20.1856 6.04352 19.932 5.78988L18.2101 4.06801C17.9565 3.81437 17.569 3.7515 17.2482 3.91191L15.4498 4.81111C15.3001 4.88595 15.1253 4.89215 14.9707 4.82811C14.8161 4.76406 14.6969 4.63608 14.644 4.47732L14.0081 2.56981C13.8947 2.22953 13.5762 2 13.2176 2ZM14.5868 5.75441C15.7419 6.23287 17.5861 4.85819 17.5861 4.85819L19.1417 6.41382C19.1417 6.41382 17.778 8.21167 18.2453 9.41291C18.6985 10.5781 21 10.9 21 10.9V13.1C21 13.1 18.7438 13.4708 18.2454 14.5871C17.7605 15.6733 19.1417 17.5861 19.1417 17.5861L17.5861 19.1417C17.5861 19.1417 15.7176 17.8062 14.5744 18.2507C13.4698 18.6801 13.1 21 13.1 21H10.9C10.9 21 10.5424 18.713 9.41291 18.2453C8.28351 17.7775 6.41382 19.1417 6.41382 19.1417L4.85819 17.5861C4.85819 17.5861 6.22227 15.7164 5.75449 14.587C5.2867 13.4576 3 13.1 3 13.1V10.9C3 10.9 5.28669 10.5426 5.75456 9.41321C6.22247 8.28378 4.85819 6.41382 4.85819 6.41382L6.41382 4.85819C6.41382 4.85819 8.29499 6.22502 9.42562 5.74942C10.5487 5.27701 10.9 3 10.9 3H13.1C13.1 3 13.4317 5.27594 14.5868 5.75441Z" fill="#fff"/>
</svg>
