<svg width="24" height="24" viewBox="0 0 24 24" fill="none" xmlns="http://www.w3.org/2000/svg">
<path d="M3 3.5C3 3.22386 3.22386 3 3.5 3C3.77614 3 4 3.22386 4 3.5L4 19C4 19.4714 4 19.7071 4.14645 19.8536C4.29289 20 4.5286 20 5 20H20.5C20.7761 20 21 20.2239 21 20.5C21 20.7761 20.7761 21 20.5 21H5C4.05719 21 3.58579 21 3.29289 20.7071C3 20.4142 3 19.9428 3 19L3 3.5Z" fill="#fff"/>
<path d="M10.9284 14.3532L9.36866 12.7973C9.19928 12.6284 9.11459 12.5439 9.01689 12.5568C8.91919 12.5698 8.85938 12.6734 8.73976 12.8805L4.48834 20.2442C4.35924 20.4678 4.08111 20.5564 3.84651 20.4485C3.57898 20.3256 3.47509 19.9992 3.62231 19.7442L7.49243 13.041C8.09295 12.0009 8.39321 11.4808 8.88319 11.4171C9.37318 11.3533 9.79649 11.7793 10.6431 12.6312L12.1814 14.1791C12.3507 14.3495 12.4354 14.4347 12.5334 14.4219C12.6314 14.4092 12.6915 14.3052 12.8116 14.0972L17.5316 5.92174C17.633 5.74611 17.6837 5.65829 17.6436 5.60537C17.6034 5.55245 17.5052 5.57764 17.3088 5.62801L15.4574 6.1027C15.3503 6.13015 15.2367 6.11458 15.141 6.05931C14.814 5.87051 14.8798 5.38033 15.245 5.28437L17.9065 4.58496C17.9753 4.56688 18.0097 4.55783 18.0435 4.5514C18.2559 4.51092 18.4758 4.54041 18.6701 4.63544C18.7009 4.65054 18.7318 4.66833 18.7934 4.70392C18.8554 4.73974 18.8864 4.75765 18.9151 4.77696C19.0956 4.89853 19.2315 5.07566 19.3022 5.28147C19.3135 5.31416 19.3227 5.34877 19.3413 5.41796L20.048 8.05559C20.1459 8.4209 19.7533 8.7222 19.4258 8.5331C19.3286 8.47701 19.2576 8.38475 19.2283 8.27648L18.7368 6.46254C18.683 6.26377 18.656 6.16438 18.5897 6.1559C18.5233 6.14741 18.4723 6.23681 18.3701 6.41562L14.0774 13.9293C13.4815 14.9723 13.1836 15.4937 12.6939 15.5597C12.2041 15.6256 11.7789 15.2014 10.9284 14.3532Z" fill="#fff"/>
</svg>
