<svg width="20" height="16" viewBox="0 0 20 16" fill="none" xmlns="http://www.w3.org/2000/svg">
<path fill-rule="evenodd" clip-rule="evenodd" d="M4 16C5.10457 16 6 15.1046 6 14C6 13.8274 5.97812 13.6598 5.93699 13.5C5.71497 12.6374 4.93192 12 4 12C3.06808 12 2.28503 12.6374 2.06301 13.5C2.02188 13.6598 2 13.8274 2 14C2 15.1046 2.89543 16 4 16ZM4 15C4.37014 15 4.69331 14.7989 4.86622 14.5C4.9513 14.3529 5 14.1821 5 14C5 13.8179 4.9513 13.6471 4.86622 13.5C4.69331 13.2011 4.37014 13 4 13C3.62986 13 3.30669 13.2011 3.13378 13.5C3.0487 13.6471 3 13.8179 3 14C3 14.1821 3.0487 14.3529 3.13378 14.5C3.30669 14.7989 3.62986 15 4 15Z" fill="#fff"/>
<path fill-rule="evenodd" clip-rule="evenodd" d="M16 16C17.1046 16 18 15.1046 18 14C18 13.8274 17.9781 13.6598 17.937 13.5C17.715 12.6374 16.9319 12 16 12C15.0681 12 14.285 12.6374 14.063 13.5C14.0219 13.6598 14 13.8274 14 14C14 15.1046 14.8954 16 16 16ZM16 15C16.3701 15 16.6933 14.7989 16.8662 14.5C16.9513 14.3529 17 14.1821 17 14C17 13.8179 16.9513 13.6471 16.8662 13.5C16.6933 13.2011 16.3701 13 16 13C15.6299 13 15.3067 13.2011 15.1338 13.5C15.0487 13.6471 15 13.8179 15 14C15 14.1821 15.0487 14.3529 15.1338 14.5C15.3067 14.7989 15.6299 15 16 15Z" fill="#fff"/>
<path fill-rule="evenodd" clip-rule="evenodd" d="M0 4C0 2.11438 0 1.17157 0.585786 0.585786C1.17157 0 2.11438 0 4 0H10C11.8856 0 12.8284 0 13.4142 0.585786C14 1.17157 14 2.11438 14 4V14.5H4.86622C4.9513 14.3529 5 14.1821 5 14C5 13.8179 4.9513 13.6471 4.86622 13.5H5.93699H13V3C13 2.05719 13 1.58579 12.7071 1.29289C12.4142 1 11.9428 1 11 1H3C2.05719 1 1.58579 1 1.29289 1.29289C1 1.58579 1 2.05719 1 3V12.437C1 13.0241 1.47593 13.5 2.06301 13.5H3.13378C3.0487 13.6471 3 13.8179 3 14C3 14.1821 3.0487 14.3529 3.13378 14.5C3.00957 14.5 2.94746 14.5 2.89495 14.4982C1.32055 14.443 0.0570043 13.1795 0.00183983 11.6051C0 11.5525 0 11.4904 0 11.3662V4Z" fill="#fff"/>
<path fill-rule="evenodd" clip-rule="evenodd" d="M14 4C15.8638 4 16.7956 4 17.5307 4.30448C18.5108 4.71046 19.2895 5.48915 19.6955 6.46927C20 7.20435 20 8.13623 20 10V11.3662C20 12.4239 20 12.9527 19.805 13.3613C19.6078 13.7747 19.2747 14.1078 18.8613 14.305C18.4527 14.5 17.9239 14.5 16.8662 14.5C16.9513 14.3529 17 14.1821 17 14C17 13.8179 16.9513 13.6471 16.8662 13.5H17.937C17.9955 13.5 18.0247 13.5 18.0495 13.4988C18.5629 13.4733 18.9733 13.0629 18.9988 12.5495C19 12.5247 19 12.4955 19 12.437V10C19 8.13077 19 7.19615 18.5981 6.5C18.3348 6.04394 17.9561 5.66523 17.5 5.40192C16.8038 5 15.8692 5 14 5V4ZM15.1338 13.5H14.063H14V14.5H15.1338C15.0487 14.3529 15 14.1821 15 14C15 13.8179 15.0487 13.6471 15.1338 13.5Z" fill="#fff"/>
<path d="M13 3C13 2.05719 13 1.58579 12.7071 1.29289C12.4142 1 11.9428 1 11 1H3C2.05719 1 1.58579 1 1.29289 1.29289C1 1.58579 1 2.05719 1 3V12.437C1 13.0241 1.47593 13.5 2.06301 13.5C2.28503 12.6374 3.06808 12 4 12C4.93192 12 5.71497 12.6374 5.93699 13.5H13V3Z" fill="#fff"/>
</svg>
