<svg width="21" height="20" viewBox="0 0 21 20" fill="none" xmlns="http://www.w3.org/2000/svg">
<path fill-rule="evenodd" clip-rule="evenodd" d="M10.7118 2.14317e-07C16.2347 -0.00113089 20.7127 4.47511 20.7139 9.99795C20.715 15.5208 16.2388 19.9989 10.7159 20C5.19307 20.0011 0.714999 15.5249 0.713867 10.002C0.712736 4.4792 5.18897 0.00113132 10.7118 2.14317e-07ZM10.7139 18C15.1321 18 18.7139 14.4183 18.7139 10C18.7139 5.58172 15.1321 2 10.7139 2C6.29559 2 2.71387 5.58172 2.71387 10C2.71387 14.4183 6.29559 18 10.7139 18Z" fill="red"/>
<path fill-rule="evenodd" clip-rule="evenodd" d="M10.7139 18C15.1321 18 18.7139 14.4183 18.7139 10C18.7139 5.58172 15.1321 2 10.7139 2C6.29559 2 2.71387 5.58172 2.71387 10C2.71387 14.4183 6.29559 18 10.7139 18ZM11.7139 9C11.7139 8.44772 11.2662 8 10.7139 8C10.1616 8 9.71387 8.44772 9.71387 9V15C9.71387 15.5523 10.1616 16 10.7139 16C11.2662 16 11.7139 15.5523 11.7139 15V9ZM10.7139 7C11.4042 7 11.9639 6.44036 11.9639 5.75C11.9639 5.05964 11.4042 4.5 10.7139 4.5C10.0235 4.5 9.46387 5.05964 9.46387 5.75C9.46387 6.44036 10.0235 7 10.7139 7Z" fill="red"/>
</svg>
