<svg width="24" height="20" viewBox="0 0 24 20" fill="none" xmlns="http://www.w3.org/2000/svg">
<path d="M20.5 19C21.8807 19 23 17.8807 23 16.5C23 14.1726 21.0482 13.1988 19 12.7917M15 9C17.2091 9 19 7.20914 19 5C19 2.79086 17.2091 1 15 1M3.5 19.0001H14.5C15.8807 19.0001 17 17.8808 17 16.5001C17 12.4194 11 12.5001 9 12.5001C7 12.5001 1 12.4194 1 16.5001C1 17.8808 2.11929 19.0001 3.5 19.0001ZM13 5C13 7.20914 11.2091 9 9 9C6.79086 9 5 7.20914 5 5C5 2.79086 6.79086 1 9 1C11.2091 1 13 2.79086 13 5Z" stroke="white" stroke-linecap="round" stroke-linejoin="round"/>
</svg>
