<svg width="24" height="24" viewBox="0 0 24 24" fill="none" xmlns="http://www.w3.org/2000/svg">
<path fill-rule="evenodd" clip-rule="evenodd" d="M7.80856 21C8.75137 21 9.22277 21 9.51566 20.7071C9.80856 20.4142 9.80856 19.9428 9.80856 19L9.80856 15.7986C9.80856 15.3272 9.80856 15.0915 9.955 14.9451C10.1014 14.7986 10.3372 14.7986 10.8086 14.7986H12.8086C13.28 14.7986 13.5157 14.7986 13.6621 14.9451C13.8086 15.0915 13.8086 15.3272 13.8086 15.7986L13.8086 19C13.8086 19.9428 13.8086 20.4142 14.1014 20.7071C14.3943 21 14.8657 21 15.8086 21H17.8086C18.7514 21 19.2228 21 19.5157 20.7071C19.8086 20.4142 19.8086 19.9428 19.8086 19L19.8086 9.58456C19.8086 9.51776 19.8086 9.48436 19.8184 9.46383C19.8372 9.42462 19.8793 9.40209 19.9223 9.40809C19.9449 9.41123 19.9727 9.4297 20.0284 9.46665L20.8941 10.0415C21.1425 10.2065 21.4793 10.1167 21.6126 9.84995C21.7245 9.626 21.6521 9.35374 21.4437 9.21496L12.9173 3.53685C12.3798 3.17894 12.1111 2.99998 11.8086 3C11.506 3.00002 11.2373 3.17902 10.6999 3.53703L2.22091 9.18545C2.01297 9.32397 1.94065 9.59561 2.05217 9.81919C2.18479 10.0851 2.51989 10.1753 2.7681 10.012L3.59555 9.46774C3.64563 9.4348 3.67067 9.41833 3.69078 9.41469C3.73669 9.4064 3.78223 9.43096 3.80054 9.47387C3.80855 9.49267 3.80855 9.52264 3.80855 9.58258L3.80856 19C3.80856 19.9428 3.80856 20.4142 4.10145 20.7071C4.39434 21 4.86575 21 5.80856 21H7.80856ZM8.80856 19C8.80856 19.4714 8.80856 19.7071 8.66211 19.8536C8.51566 20 8.27996 20 7.80856 20H5.80856C5.33715 20 5.10145 20 4.955 19.8536C4.80856 19.7071 4.80856 19.4714 4.80856 19L4.80855 9.19135C4.80855 8.92876 4.80855 8.79747 4.86795 8.68674C4.92735 8.57602 5.03674 8.50341 5.25553 8.35819L10.7023 4.7428C11.2386 4.38679 11.5068 4.20878 11.8085 4.20881C12.1103 4.20883 12.3784 4.38689 12.9147 4.74299L18.3617 8.35996C18.5804 8.50519 18.6898 8.57781 18.7492 8.68851C18.8086 8.79922 18.8086 8.93049 18.8086 9.19303L18.8086 19C18.8086 19.4714 18.8086 19.7071 18.6621 19.8536C18.5157 20 18.28 20 17.8086 20H15.8086C15.3371 20 15.1014 20 14.955 19.8536C14.8086 19.7071 14.8086 19.4714 14.8086 19L14.8086 15.7986C14.8086 14.8558 14.8086 14.3844 14.5157 14.0915C14.2228 13.7986 13.7514 13.7986 12.8086 13.7986H10.8086C9.86575 13.7986 9.39434 13.7986 9.10145 14.0915C8.80855 14.3844 8.80856 14.8558 8.80856 15.7986L8.80856 19Z" fill="#fff"/>
</svg>
