<svg width="24" height="24" viewBox="0 0 24 24" fill="none" xmlns="http://www.w3.org/2000/svg">
<path fill-rule="evenodd" clip-rule="evenodd" d="M11.0474 14.7986H13.0474C13.5188 14.7986 13.7545 14.7986 13.901 14.9451C14.0474 15.0915 14.0474 15.3272 14.0474 15.7986L14.0474 19C14.0474 19.9428 14.0474 20.4142 14.3403 20.7071C14.6332 21 15.1046 21 16.0474 21H18.0474C18.9902 21 19.4617 21 19.7545 20.7071C20.0474 20.4142 20.0474 19.9428 20.0474 19L20.0474 10.5157L20.1553 10.5885C20.6103 10.8952 21.2279 10.775 21.5346 10.32C21.8425 9.86321 21.7201 9.24313 21.2617 8.93769L13.1562 3.53685C12.6187 3.17894 12.35 2.99998 12.0475 3C11.7449 3.00002 11.4762 3.17902 10.9388 3.53703L2.82951 8.93803C2.37122 9.24326 2.24679 9.86203 2.55146 10.3207C2.85578 10.7788 3.47342 10.9043 3.93241 10.6013L4.04744 10.5254V19C4.04744 19.9428 4.04744 20.4142 4.34033 20.7071C4.63323 21 5.10463 21 6.04744 21H8.04744C8.99025 21 9.46165 21 9.75455 20.7071C10.0474 20.4142 10.0474 19.9428 10.0474 19V15.7986C10.0474 15.3272 10.0474 15.0915 10.1939 14.9451C10.3403 14.7986 10.576 14.7986 11.0474 14.7986ZM8.04744 14.7986L8.04744 18C8.04744 18.4714 8.04744 18.7071 7.90099 18.8536C7.75455 19 7.51884 19 7.04744 19C6.57603 19 6.34033 19 6.19389 18.8536C6.04744 18.7071 6.04744 18.4714 6.04744 18L6.04744 9.72783C6.04744 9.46524 6.04744 9.33394 6.10684 9.22322C6.16624 9.1125 6.27563 9.03989 6.49442 8.89467L10.9411 5.94311C11.4775 5.5871 11.7457 5.40909 12.0474 5.40912C12.3491 5.40915 12.6173 5.58721 13.1536 5.94332L17.6006 8.89632C17.8193 9.04155 17.9287 9.11417 17.9881 9.22487C18.0474 9.33558 18.0474 9.46685 18.0474 9.72938L18.0474 18C18.0474 18.4714 18.0474 18.7071 17.901 18.8536C17.7545 19 17.5188 19 17.0474 19C16.576 19 16.3403 19 16.1939 18.8536C16.0474 18.7071 16.0474 18.4714 16.0474 18L16.0474 14.7986C16.0474 13.8558 16.0474 13.3844 15.7545 13.0915C15.4617 12.7986 14.9902 12.7986 14.0474 12.7986H10.0474C9.10463 12.7986 8.63322 12.7986 8.34033 13.0915C8.04744 13.3844 8.04744 13.8558 8.04744 14.7986Z" fill="#0D0D0D"/>
</svg>
