<svg width="24" height="24" viewBox="0 0 24 24" fill="none" xmlns="http://www.w3.org/2000/svg">
<path fill-rule="evenodd" clip-rule="evenodd" d="M6 20C7.10457 20 8 19.1046 8 18C8 16.8954 7.10457 16 6 16C4.89543 16 4 16.8954 4 18C4 19.1046 4.89543 20 6 20ZM6 19C6.37014 19 6.69331 18.7989 6.86622 18.5C6.9513 18.3529 7 18.1821 7 18C7 17.8179 6.9513 17.6471 6.86622 17.5C6.69331 17.2011 6.37014 17 6 17C5.62986 17 5.30669 17.2011 5.13378 17.5C5.0487 17.6471 5 17.8179 5 18C5 18.1821 5.0487 18.3529 5.13378 18.5C5.30669 18.7989 5.62986 19 6 19Z" fill="#fff"/>
<path fill-rule="evenodd" clip-rule="evenodd" d="M18 20C19.1046 20 20 19.1046 20 18C20 16.8954 19.1046 16 18 16C16.8954 16 16 16.8954 16 18C16 19.1046 16.8954 20 18 20ZM18 19C18.3701 19 18.6933 18.7989 18.8662 18.5C18.9513 18.3529 19 18.1821 19 18C19 17.8179 18.9513 17.6471 18.8662 17.5C18.6933 17.2011 18.3701 17 18 17C17.6299 17 17.3067 17.2011 17.1338 17.5C17.0487 17.6471 17 17.8179 17 18C17 18.1821 17.0487 18.3529 17.1338 18.5C17.3067 18.7989 17.6299 19 18 19Z" fill="#fff"/>
<path fill-rule="evenodd" clip-rule="evenodd" d="M2 8C2 6.11438 2 5.17157 2.58579 4.58579C3.17157 4 4.11438 4 6 4H12C13.8856 4 14.8284 4 15.4142 4.58579C16 5.17157 16 6.11438 16 8V18.5H6.86622C6.9513 18.3529 7 18.1821 7 18C7 17.8179 6.9513 17.6471 6.86622 17.5H15V7C15 6.05719 15 5.58579 14.7071 5.29289C14.4142 5 13.9428 5 13 5H5C4.05719 5 3.58579 5 3.29289 5.29289C3 5.58579 3 6.05719 3 7V15.3662C3 15.4904 3 15.5525 3.00276 15.605C3.0565 16.627 3.87302 17.4435 4.89498 17.4972C4.94745 17.5 5.00956 17.5 5.13378 17.5C5.0487 17.6471 5 17.8179 5 18C5 18.1821 5.0487 18.3529 5.13378 18.5C5.00957 18.5 4.94746 18.5 4.89495 18.4982C3.32055 18.443 2.057 17.1795 2.00184 15.6051C2 15.5525 2 15.4904 2 15.3662V8Z" fill="#fff"/>
<path fill-rule="evenodd" clip-rule="evenodd" d="M16 8C17.8638 8 18.7956 8 19.5307 8.30448C20.5108 8.71046 21.2895 9.48915 21.6955 10.4693C22 11.2044 22 12.1362 22 14V15.3662C22 16.4239 22 16.9527 21.805 17.3613C21.6078 17.7747 21.2747 18.1078 20.8613 18.305C20.4527 18.5 19.9239 18.5 18.8662 18.5C18.9513 18.3529 19 18.1821 19 18C19 17.8179 18.9513 17.6471 18.8662 17.5H19C19.9428 17.5 20.4142 17.5 20.7071 17.2071C21 16.9142 21 16.4428 21 15.5V14C21 12.1308 21 11.1962 20.5981 10.5C20.3348 10.0439 19.9561 9.66523 19.5 9.40192C18.8038 9 17.8692 9 16 9V8ZM17.1338 17.5H16V18.5H17.1338C17.0487 18.3529 17 18.1821 17 18C17 17.8179 17.0487 17.6471 17.1338 17.5Z" fill="#fff"/>
</svg>
