<svg width="24" height="24" viewBox="0 0 24 24" fill="none" xmlns="http://www.w3.org/2000/svg">
<path fill-rule="evenodd" clip-rule="evenodd" d="M2.8176 20C2.36605 20 2 19.6339 2 19.1824V8.26044C2 7.64775 2 7.3414 2.15399 7.09705C2.30799 6.8527 2.58435 6.72053 3.13709 6.45617L7.91973 4.30317C8.3414 4.1015 8.55224 4.00067 8.77788 4.00016C9.00352 3.99965 9.21481 4.09953 9.6374 4.2993L14.5829 6.38525C14.7881 6.48224 14.8907 6.53074 15.0005 6.53177C15.1102 6.5328 15.2137 6.48623 15.4207 6.3931L20.8389 4.07251C20.9451 4.02472 21.0602 4 21.1767 4C21.6314 4 22 4.3686 22 4.82329V15.7178C22 16.3405 22 16.6519 21.8418 16.8986C21.6837 17.1453 21.4007 17.2753 20.8348 17.5352L15.8326 19.7152C15.4181 19.9056 15.2109 20.0008 14.9903 20C14.7698 19.9992 14.5632 19.9026 14.1501 19.7093L9.17456 17.4987C8.96579 17.401 8.86141 17.3521 8.75004 17.3522C8.63866 17.3523 8.53434 17.4013 8.3257 17.4992L3.16511 19.9225C3.05637 19.9735 2.93772 20 2.8176 20ZM8.25 5.45219C8.25 5.30943 8.25 5.23804 8.20326 5.20863C8.15652 5.17922 8.09216 5.21011 7.96345 5.27189L3.56727 7.24771C3.2915 7.38008 3.15362 7.44626 3.07681 7.56833C3 7.6904 3 7.84334 3 8.14923V18.6832C3 18.8256 3 18.8967 3.04661 18.9262C3.09322 18.9556 3.15748 18.925 3.28599 18.8638L7.67993 16.7715C7.95702 16.6395 8.09556 16.5735 8.17278 16.4512C8.25 16.3289 8.25 16.1755 8.25 15.8686V5.45219ZM9.25 15.8708C9.25 16.1767 9.25 16.3296 9.32681 16.4517C9.40362 16.5737 9.5415 16.6399 9.81727 16.7723L14.2135 18.7649C14.3422 18.8266 14.4065 18.8575 14.4533 18.8281C14.5 18.7987 14.5 18.7273 14.5 18.5846V8.03164C14.5 7.72575 14.5 7.5728 14.4232 7.45074C14.3464 7.32867 14.2085 7.26249 13.9327 7.13012L9.53655 5.27189C9.40784 5.21011 9.34348 5.17922 9.29674 5.20863C9.25 5.23804 9.25 5.30943 9.25 5.45219V15.8708ZM21 5.29412C21 5.15344 21 5.0831 20.9539 5.0536C20.9078 5.0241 20.8439 5.05357 20.7162 5.11253L16.0809 7.13428C15.7988 7.26452 15.6577 7.32964 15.5788 7.45285C15.5 7.57605 15.5 7.73145 15.5 8.04224V18.5898C15.5 18.7305 15.5 18.8009 15.5461 18.8303C15.5922 18.8598 15.6561 18.8304 15.7838 18.7714L20.4191 16.7497C20.7012 16.6194 20.8423 16.5543 20.9212 16.4311C21 16.3079 21 16.1525 21 15.8417V5.29412Z" fill="#fff"/>
<path fill-rule="evenodd" clip-rule="evenodd" d="M12 16.7585C11.5002 16.7585 10.5 15.7585 10.5 13.7585C10.5 12.7585 11.1716 12.2585 12 12.2585C12.8284 12.2585 13.4998 12.7585 13.5 13.7585C13.5 15.7585 12.4998 16.7585 12 16.7585ZM11.5 13.7585C11.5 13.7585 11.5 15.7585 12 15.7585C12.5 15.7585 12.5 13.7585 12.5 13.7585C12.5 13.7585 12.5 13.2585 12 13.2585C11.5 13.2585 11.5 13.7585 11.5 13.7585Z" fill="#fff"/>
</svg>
