<svg width="24" height="24" viewBox="0 0 24 24" fill="none" xmlns="http://www.w3.org/2000/svg">
<path fill-rule="evenodd" clip-rule="evenodd" d="M20 16C20 18.8284 20 20.2426 19.1213 21.1213C18.2426 22 16.8284 22 14 22H10C7.17157 22 5.75736 22 4.87868 21.1213C4 20.2426 4 18.8284 4 16V8C4 5.17157 4 3.75736 4.87868 2.87868C5.75736 2 7.17157 2 10 2H14C14.1686 2 14.2529 2 14.3341 2.00661C14.7512 2.04061 15.1472 2.20464 15.4662 2.47557C15.5282 2.52825 15.5879 2.58787 15.7071 2.70711L19.2929 6.29289C19.4121 6.41213 19.4718 6.47175 19.5244 6.53378C19.7954 6.8528 19.9594 7.24878 19.9934 7.66595C20 7.74705 20 7.83137 20 8V16ZM14 3V4C14 5.88562 14 6.82843 14.5858 7.41421C15.1716 8 16.1144 8 18 8H19V17C19 18.8856 19 19.8284 18.4142 20.4142C17.8284 21 16.8856 21 15 21H9C7.11438 21 6.17157 21 5.58579 20.4142C5 19.8284 5 18.8856 5 17V7C5 5.11438 5 4.17157 5.58579 3.58579C6.17157 3 7.11438 3 9 3H14ZM15 5C15 5.94281 15 6.41421 15.2929 6.70711C15.5858 7 16.0572 7 17 7H18.6L15 3.4V5Z" fill="#fff"/>
<path d="M7 11.5C7 11.2239 7.22386 11 7.5 11H16.5C16.7761 11 17 11.2239 17 11.5C17 11.7761 16.7761 12 16.5 12H7.5C7.22386 12 7 11.7761 7 11.5Z" fill="#fff"/>
<path d="M7 14.5C7 14.2239 7.22386 14 7.5 14H16.5C16.7761 14 17 14.2239 17 14.5C17 14.7761 16.7761 15 16.5 15H7.5C7.22386 15 7 14.7761 7 14.5Z" fill="#fff"/>
<path d="M7 17.5C7 17.2239 7.22386 17 7.5 17H16.5C16.7761 17 17 17.2239 17 17.5C17 17.7761 16.7761 18 16.5 18H7.5C7.22386 18 7 17.7761 7 17.5Z" fill="#fff"/>
</svg>
