<?xml version="1.0" encoding="iso-8859-1"?>
<!-- Uploaded to: SVG Repo, www.svgrepo.com, Generator: SVG Repo Mixer Tools -->
<svg fill="#fff" height="800px" width="800px" version="1.1" id="Layer_1" xmlns="http://www.w3.org/2000/svg" xmlns:xlink="http://www.w3.org/1999/xlink" 
	 viewBox="0 0 512 512" xml:space="preserve">
<g>
	<g>
		<g>
			<path d="M494.14,69.021h-71.65V58.255c0-9.864-7.997-17.86-17.86-17.86c-9.864,0-17.86,7.997-17.86,17.86v10.765h-63.365V58.255
				c0-9.864-7.997-17.86-17.86-17.86c-9.864,0-17.86,7.997-17.86,17.86v10.765h-63.365V58.255c0-9.864-7.997-17.86-17.86-17.86
				c-9.864,0-17.86,7.997-17.86,17.86v10.765H125.23V58.255c0-9.864-7.997-17.86-17.86-17.86c-9.864,0-17.86,7.997-17.86,17.86
				v10.765H17.86C7.997,69.021,0,77.017,0,86.881c0,4.771,0,363.31,0,366.864c0,9.864,7.997,17.86,17.86,17.86H494.14
				c9.864,0,17.86-7.997,17.86-17.86c0-3.551,0-362.081,0-366.864C512,77.017,504.003,69.021,494.14,69.021z M476.279,435.884
				H35.721V190.281h440.558V435.884z M476.279,154.56H35.721v-49.819h53.79v6.963c0,9.864,7.997,17.86,17.86,17.86
				c9.864,0,17.86-7.997,17.86-17.86v-6.963h63.365v6.963c0,9.864,7.997,17.86,17.86,17.86c9.864,0,17.86-7.997,17.86-17.86v-6.963
				h63.365v6.963c0,9.864,7.997,17.86,17.86,17.86c9.864,0,17.86-7.997,17.86-17.86v-6.963h63.365v6.963
				c0,9.864,7.997,17.86,17.86,17.86c9.864,0,17.86-7.997,17.86-17.86v-6.963h53.789V154.56z"/>
			<circle cx="107.365" cy="266.026" r="26.374"/>
			<circle cx="206.455" cy="266.026" r="26.374"/>
			<circle cx="305.545" cy="266.026" r="26.374"/>
			<circle cx="404.623" cy="266.026" r="26.374"/>
			<circle cx="107.365" cy="360.139" r="26.374"/>
			<circle cx="206.455" cy="360.139" r="26.374"/>
			<circle cx="305.545" cy="360.139" r="26.374"/>
			<circle cx="404.623" cy="360.139" r="26.374"/>
		</g>
	</g>
</g>
</svg>