<svg width="24" height="24" viewBox="0 0 24 24" fill="none" xmlns="http://www.w3.org/2000/svg">
<path fill-rule="evenodd" clip-rule="evenodd" d="M15 20C19.4183 20 23 16.4183 23 12C23 7.58172 19.4183 4 15 4C12.0033 4 9.39144 5.64768 8.02093 8.08651C7.68913 8.02963 7.34803 8 7 8C3.68629 8 1 10.6863 1 14C1 17.3137 3.68629 20 7 20H15ZM7.56865 9.03198C7.20179 9.94972 7 10.9513 7 12C7 12.1898 7.00661 12.378 7.01961 12.5645C7.03699 12.8139 7.2495 13 7.49945 13C7.80103 13 8.0314 12.7327 8.01309 12.4317C8.00441 12.2889 8 12.145 8 12C8 11.0232 8.20006 10.0932 8.56143 9.24864C8.69479 8.93696 8.85012 8.63693 9.02547 8.35048C10.2556 6.34091 12.4712 5 15 5C18.866 5 22 8.13401 22 12C22 15.866 18.866 19 15 19H7C4.23858 19 2 16.7614 2 14C2 11.2386 4.23858 9 7 9C7.19228 9 7.38202 9.01086 7.56865 9.03198Z" fill="#fff"/>
<path d="M15.3284 15.1213L17.0962 13.3536C17.2915 13.1583 17.2915 12.8417 17.0962 12.6464C16.9009 12.4512 16.5843 12.4512 16.3891 12.6464L15.1216 13.9139V9.5C15.1216 9.22386 14.8978 9 14.6216 9C14.3455 9 14.1216 9.22386 14.1216 9.5V13.9145L12.8536 12.6464C12.6583 12.4512 12.3417 12.4512 12.1464 12.6464C11.9512 12.8417 11.9512 13.1583 12.1464 13.3536L13.9142 15.1213C14.3047 15.5118 14.9379 15.5118 15.3284 15.1213Z" fill="#fff"/>
</svg>
